<svg width="21" height="21" viewBox="0 0 21 21" fill="none" xmlns="http://www.w3.org/2000/svg">
<path d="M10.5 5.25C10.5 2.35051 12.8505 0 15.75 0C18.6495 0 21 2.35051 21 5.25V10.5H15.75C12.8505 10.5 10.5 8.1495 10.5 5.25Z" fill="#666666"/>
<path d="M0 5.25C0 2.35051 2.35051 0 5.25 0C8.1495 0 10.5 2.35051 10.5 5.25C10.5 8.1495 8.1495 10.5 5.25 10.5H0V5.25Z" fill="#666666"/>
<path d="M10.5 15.75C10.5 12.8505 12.8505 10.5 15.75 10.5H21V15.75C21 18.6495 18.6495 21 15.75 21C12.8505 21 10.5 18.6495 10.5 15.75Z" fill="#666666"/>
<path d="M0 10.5H5.25C8.1495 10.5 10.5 12.8505 10.5 15.75C10.5 18.6495 8.1495 21 5.25 21C2.35051 21 0 18.6495 0 15.75V10.5Z" fill="#666666"/>
</svg>
