<svg width="26" height="26" viewBox="0 0 26 26" fill="none" xmlns="http://www.w3.org/2000/svg">
<path d="M13 6.5C13 2.91015 15.9101 0 19.5 0C23.0899 0 26 2.91015 26 6.5V13H19.5C15.9101 13 13 10.0899 13 6.5Z" fill="#F14E9A"/>
<path d="M0 6.5C0 2.91015 2.91015 0 6.5 0C10.0899 0 13 2.91015 13 6.5C13 10.0899 10.0899 13 6.5 13H0V6.5Z" fill="#47B9F2"/>
<path d="M13 19.5C13 15.9101 15.9101 13 19.5 13H26V19.5C26 23.0899 23.0899 26 19.5 26C15.9101 26 13 23.0899 13 19.5Z" fill="#A9175B"/>
<path d="M0 13H6.5C10.0899 13 13 15.9101 13 19.5C13 23.0899 10.0899 26 6.5 26C2.91015 26 0 23.0899 0 19.5V13Z" fill="#29779E"/>
</svg>
